<svg width="35" height="35" viewBox="0 0 35 35" fill="none" xmlns="http://www.w3.org/2000/svg">
<path d="M6.19788 17.2069C6.19135 19.8411 7.10017 22.3958 8.76894 24.434C10.4377 26.4723 12.7627 27.8675 15.3464 28.381C17.9301 28.8946 20.612 28.4946 22.9334 27.2494C25.2548 26.0043 27.0715 23.9914 28.0729 21.5549C27.1627 21.7831 26.228 21.8997 25.2896 21.902C23.4218 21.9015 21.583 21.4407 19.9357 20.5603C18.2884 19.6799 16.8835 18.407 15.8454 16.8543C14.8072 15.3016 14.1678 13.5169 13.9836 11.6582C13.7995 9.79955 14.0763 7.92413 14.7896 6.19791C12.3366 6.81498 10.1595 8.23285 8.60323 10.2269C7.04697 12.221 6.20049 14.6774 6.19788 17.2069Z" stroke="white" stroke-width="2" stroke-linecap="round" stroke-linejoin="round"/>
</svg>
