<svg width="35" height="35" viewBox="0 0 35 35" fill="none" xmlns="http://www.w3.org/2000/svg">
<g clip-path="url(#clip0_221:313)">
<path d="M34.271 17.3316C33.76 18.565 32.9821 19.67 31.9933 20.5671C31.0045 21.4643 29.8293 22.1313 28.5521 22.5203C28.3477 21.8368 28.0093 21.2008 27.5568 20.6493C27.2325 20.2449 26.855 19.8864 26.4346 19.5832C25.3087 18.771 23.954 18.3369 22.5657 18.3436C22.3517 18.3325 22.1373 18.3325 21.9233 18.3436V18.2707C21.8946 17.1025 21.5083 15.9711 20.8165 15.0293C20.1247 14.0875 19.1605 13.3806 18.0543 13.004C17.7084 12.8723 17.3517 12.7708 16.9883 12.7006C17.216 10.9045 17.9801 9.21867 19.1807 7.86348C20.3814 6.50828 21.9628 5.54664 23.7185 5.10416C23.1062 6.65179 22.9293 8.33754 23.2071 9.97855C23.4849 11.6196 24.2067 13.1532 25.2942 14.4131C26.3818 15.673 27.7935 16.611 29.3764 17.1255C30.9592 17.64 32.6527 17.7113 34.2731 17.3316H34.271Z" stroke="white" stroke-width="2" stroke-linecap="round" stroke-linejoin="round"/>
<path d="M28.7992 24.0384C28.7992 27.1804 25.9752 29.7354 22.5867 29.7354H6.94904C5.44878 29.7379 3.99826 29.1975 2.86545 28.2138C1.73265 27.2302 0.994057 25.8699 0.7861 24.3841C0.74609 24.1083 0.727345 23.83 0.72998 23.5514C0.735387 21.9066 1.39352 20.3314 2.55979 19.1716C3.72607 18.0119 5.30503 17.3627 6.94975 17.3666C7.83009 17.3649 8.70048 17.5526 9.50183 17.9171C9.72058 14.9516 12.4243 12.608 15.7078 12.608C16.5108 12.6101 17.307 12.756 18.0586 13.0389C19.1648 13.4156 20.1289 14.1225 20.8208 15.0643C21.5126 16.0061 21.8989 17.1375 21.9276 18.3057V18.3787C22.1416 18.3675 22.356 18.3675 22.57 18.3787C23.9583 18.3722 25.3129 18.8062 26.4389 19.6182C26.8594 19.9213 27.2368 20.2799 27.5611 20.6843C28.0137 21.2358 28.352 21.8718 28.5564 22.5553C28.7093 23.0352 28.7911 23.5349 28.7992 24.0384V24.0384Z" stroke="white" stroke-width="2" stroke-linecap="round" stroke-linejoin="round"/>
</g>
<defs>
<clipPath id="clip0_221:313">
<rect width="35" height="35" fill="white"/>
</clipPath>
</defs>
</svg>
