<svg width="35" height="35" viewBox="0 0 35 35" fill="none" xmlns="http://www.w3.org/2000/svg">
<g clip-path="url(#clip0_221:298)">
<path d="M28.6912 24.0173C28.6912 27.1483 25.8766 29.6953 22.4991 29.6953H6.92779C5.43258 29.6978 3.98699 29.1591 2.85796 28.1789C1.72892 27.1986 0.992713 25.8429 0.785302 24.3622C0.745849 24.0871 0.727084 23.8095 0.729159 23.5316C0.736685 21.894 1.39341 20.3262 2.5553 19.1721C3.7172 18.018 5.28941 17.3718 6.92708 17.3753C7.80268 17.3718 8.66882 17.5565 9.46676 17.9171C9.68551 14.9617 12.3798 12.6328 15.6516 12.6328C16.4522 12.6311 17.2463 12.7767 17.9944 13.0623C19.0956 13.439 20.055 14.1442 20.7431 15.0829C21.4312 16.0216 21.8151 17.1487 21.8429 18.3123V18.3852C22.0562 18.3743 22.2698 18.3743 22.4831 18.3852C23.8664 18.3769 25.2166 18.8082 26.3389 19.6168C26.7588 19.9179 27.1352 20.2754 27.4575 20.6792C28.238 21.6198 28.6726 22.7995 28.6891 24.0216L28.6912 24.0173Z" stroke="white" stroke-width="2" stroke-linecap="round" stroke-linejoin="round"/>
<path d="M28.5687 15.4613C28.5594 16.2732 28.352 17.0707 27.9646 17.7843C27.5771 18.4979 27.0213 19.1062 26.3454 19.5563C25.2231 18.7477 23.8729 18.3164 22.4896 18.3247C22.2763 18.3138 22.0626 18.3138 21.8494 18.3247V18.2518C21.8216 17.0882 21.4378 15.961 20.7497 15.0223C20.0616 14.0836 19.1022 13.3784 18.0009 13.0018C18.5168 12.1617 19.2419 11.4698 20.1052 10.9937C20.9685 10.5177 21.9406 10.2737 22.9264 10.2856C26.0523 10.3184 28.5687 12.6263 28.5687 15.4613Z" stroke="white" stroke-width="2" stroke-linecap="round" stroke-linejoin="round"/>
<path d="M22.9498 5.10416V7.53155" stroke="white" stroke-width="2" stroke-linecap="round" stroke-linejoin="round"/>
<path d="M14.9493 8.13681L16.8277 9.854" stroke="white" stroke-width="2" stroke-linecap="round" stroke-linejoin="round"/>
<path d="M30.0139 20.7455L31.8922 22.4627" stroke="white" stroke-width="2" stroke-linecap="round" stroke-linejoin="round"/>
<path d="M31.618 15.4612H34.2707" stroke="white" stroke-width="2" stroke-linecap="round" stroke-linejoin="round"/>
<path d="M29.0785 9.854L30.9568 8.13681" stroke="white" stroke-width="2" stroke-linecap="round" stroke-linejoin="round"/>
</g>
<defs>
<clipPath id="clip0_221:298">
<rect width="35" height="35" fill="white"/>
</clipPath>
</defs>
</svg>
