<svg width="35" height="35" viewBox="0 0 35 35" fill="none" xmlns="http://www.w3.org/2000/svg">
<path d="M28.433 14.2331C28.436 14.1419 28.4375 14.0503 28.4375 13.9583C28.4375 9.47102 24.8138 5.83333 20.3438 5.83333C16.7978 5.83333 13.7844 8.12245 12.6901 11.3089C11.9041 10.8972 11.0104 10.6644 10.0625 10.6644C6.92138 10.6644 4.375 13.2206 4.375 16.3739C4.375 19.5271 6.92138 22.0833 10.0625 22.0833L20.3438 22.0833C20.3474 22.0833 20.351 22.0833 20.3547 22.0833H26.4687C28.7642 22.0833 30.625 20.2153 30.625 17.911C30.625 16.3199 29.7378 14.9369 28.433 14.2331Z" stroke="white" stroke-width="2"/>
<path fill-rule="evenodd" clip-rule="evenodd" d="M8.3125 24.0625C8.3125 23.6598 8.63896 23.3333 9.04166 23.3333H25.8125C26.2152 23.3333 26.5417 23.6598 26.5417 24.0625C26.5417 24.4652 26.2152 24.7917 25.8125 24.7917H9.04166C8.63896 24.7917 8.3125 24.4652 8.3125 24.0625ZM8.3125 26.9792C8.3125 26.5765 8.63896 26.25 9.04167 26.25H25.8125C26.2152 26.25 26.5417 26.5765 26.5417 26.9792C26.5417 27.3819 26.2152 27.7083 25.8125 27.7083H9.04167C8.63896 27.7083 8.3125 27.3819 8.3125 26.9792ZM9.04167 29.1667C8.63896 29.1667 8.3125 29.4931 8.3125 29.8958C8.3125 30.2986 8.63896 30.625 9.04167 30.625H25.8125C26.2152 30.625 26.5417 30.2986 26.5417 29.8958C26.5417 29.4931 26.2152 29.1667 25.8125 29.1667H9.04167Z" fill="white"/>
</svg>
