<svg width="35" height="35" viewBox="0 0 35 35" fill="none" xmlns="http://www.w3.org/2000/svg">
<path d="M31.8864 16.173C31.8864 19.4177 28.9698 22.0573 25.4698 22.0573H9.34061C7.79104 22.0599 6.29285 21.5018 5.12279 20.4858C3.95272 19.4699 3.18981 18.0648 2.97499 16.5302C2.93407 16.2453 2.91457 15.9577 2.91665 15.6698C2.92437 13.9725 3.60505 12.3475 4.80936 11.1514C6.01367 9.95528 7.64326 9.28574 9.34061 9.28962C10.2481 9.28588 11.1459 9.47735 11.9729 9.85107C12.1989 6.78857 14.9916 4.37502 18.3823 4.37502C19.2121 4.37313 20.0351 4.52391 20.8104 4.81982C21.9495 5.20754 22.9428 5.93433 23.657 6.90271C24.3712 7.87109 24.7722 9.03473 24.8062 10.2375V10.3104C25.0273 10.2992 25.2487 10.2992 25.4698 10.3104C26.9033 10.3018 28.3025 10.7486 29.4656 11.5865C29.9008 11.8985 30.2909 12.269 30.625 12.6875C31.4331 13.6701 31.8785 14.9008 31.8864 16.173Z" stroke="white" stroke-width="2" stroke-linecap="round" stroke-linejoin="round"/>
<path d="M14.452 22.473L13.1395 24.6605" stroke="white" stroke-width="2" stroke-linecap="round" stroke-linejoin="round"/>
<path d="M11.1052 28.0511L9.79272 30.2386" stroke="white" stroke-width="2" stroke-linecap="round" stroke-linejoin="round"/>
<path d="M17.0479 24.6678L15.7208 26.848" stroke="white" stroke-width="2" stroke-linecap="round" stroke-linejoin="round"/>
<path d="M14.3135 29.1521L12.9865 31.3323" stroke="white" stroke-width="2" stroke-linecap="round" stroke-linejoin="round"/>
<path d="M22.0427 22.473L20.7229 24.6605" stroke="white" stroke-width="2" stroke-linecap="round" stroke-linejoin="round"/>
<path d="M18.6885 28.0511L17.376 30.2386" stroke="white" stroke-width="2" stroke-linecap="round" stroke-linejoin="round"/>
</svg>
