<svg width="35" height="35" viewBox="0 0 35 35" fill="none" xmlns="http://www.w3.org/2000/svg">
<path d="M31.8937 20.5479C31.8937 23.7927 28.9771 26.4323 25.4771 26.4323H9.34062C7.79105 26.4349 6.29286 25.8767 5.12279 24.8608C3.95272 23.8449 3.18981 22.4398 2.97499 20.9052C2.93407 20.6203 2.91457 20.3327 2.91665 20.0448C2.92437 18.3475 3.60506 16.7225 4.80937 15.5264C6.01367 14.3303 7.64327 13.6607 9.34062 13.6646C10.2482 13.6609 11.1459 13.8523 11.9729 14.226C12.1989 11.1635 14.9917 8.75002 18.3823 8.75002C19.2121 8.74815 20.0351 8.89891 20.8104 9.1948C21.9516 9.58503 22.9457 10.3157 23.6588 11.2883C24.372 12.2609 24.7699 13.4287 24.7989 14.6344V14.7073C25.02 14.696 25.2415 14.696 25.4625 14.7073C26.896 14.6986 28.2952 15.1455 29.4583 15.9833C29.8935 16.2954 30.2836 16.6659 30.6177 17.0844C31.4263 18.0592 31.8767 19.2815 31.8937 20.5479Z" stroke="white" stroke-width="2" stroke-linecap="round" stroke-linejoin="round"/>
</svg>
