<svg width="35" height="35" viewBox="0 0 35 35" fill="none" xmlns="http://www.w3.org/2000/svg">
<path d="M31.8865 16.1729C31.8865 19.4177 28.9698 22.0573 25.4698 22.0573H9.34067C7.7911 22.0599 6.29291 21.5017 5.12284 20.4858C3.95277 19.4699 3.18986 18.0648 2.97504 16.5302C2.93412 16.2453 2.91463 15.9577 2.91672 15.6698C2.92444 13.9725 3.60511 12.3475 4.80942 11.1514C6.01372 9.95528 7.64332 9.28571 9.34067 9.28959C10.2482 9.28584 11.1459 9.47733 11.973 9.85107C12.199 6.78857 14.9917 4.37502 18.3823 4.37502C19.2121 4.37316 20.0352 4.52392 20.8104 4.8198C21.9516 5.21003 22.9458 5.94068 23.6589 6.91328C24.3721 7.88588 24.77 9.05371 24.799 10.2594V10.3323C25.02 10.321 25.2415 10.321 25.4625 10.3323C26.896 10.3237 28.2952 10.7705 29.4584 11.6084C29.8935 11.9204 30.2837 12.2909 30.6178 12.7094C31.4238 13.6851 31.8715 14.9074 31.8865 16.1729V16.1729Z" stroke="white" stroke-width="2" stroke-linecap="round" stroke-linejoin="round"/>
<path d="M14.4448 22.473L9.78546 30.2386" stroke="white" stroke-width="2" stroke-linecap="round" stroke-linejoin="round"/>
<path d="M17.0407 24.6678L12.9792 31.3324" stroke="white" stroke-width="2" stroke-linecap="round" stroke-linejoin="round"/>
<path d="M22.0355 22.473L17.3761 30.2386" stroke="white" stroke-width="2" stroke-linecap="round" stroke-linejoin="round"/>
</svg>
