<svg width="35" height="35" viewBox="0 0 35 35" fill="none" xmlns="http://www.w3.org/2000/svg">
<path d="M12.8552 22.1302L9.84375 26.6437H12.9208L9.84375 31.2375" stroke="white" stroke-width="2" stroke-linecap="round" stroke-linejoin="round"/>
<path d="M23.5739 22.1156L22.276 24.3104" stroke="white" stroke-width="2" stroke-linecap="round" stroke-linejoin="round"/>
<path d="M20.2125 27.8104L18.9146 30.0052" stroke="white" stroke-width="2" stroke-linecap="round" stroke-linejoin="round"/>
<path d="M18.3677 24.2302L17.0552 26.4177" stroke="white" stroke-width="2" stroke-linecap="round" stroke-linejoin="round"/>
<path d="M15.6187 28.8167L14.3062 31.0042" stroke="white" stroke-width="2" stroke-linecap="round" stroke-linejoin="round"/>
<path d="M31.8864 16.1802C31.8864 19.425 28.9697 22.0646 25.4697 22.0646H9.34057C7.791 22.0672 6.29282 21.509 5.12275 20.4931C3.95268 19.4771 3.18977 18.0721 2.97495 16.5375C2.9335 16.2526 2.914 15.965 2.91661 15.6771C2.92241 13.9785 3.60224 12.3517 4.80675 11.154C6.01127 9.95629 7.64196 9.2857 9.34057 9.28958C10.2486 9.28834 11.1463 9.48232 11.9729 9.85835C12.1989 6.79585 14.9916 4.375 18.3822 4.375C19.2117 4.37699 20.0341 4.52763 20.8104 4.81978C21.9529 5.2088 22.9486 5.93894 23.6631 6.91164C24.3777 7.88434 24.7766 9.0528 24.8062 10.2594V10.3323C25.0272 10.3208 25.2487 10.3208 25.4697 10.3323C26.9039 10.3263 28.303 10.7757 29.4656 11.6156C29.8899 11.919 30.2723 12.2769 30.6031 12.6802C31.0705 13.2498 31.42 13.9066 31.6312 14.6125C31.7941 15.1194 31.8801 15.6478 31.8864 16.1802V16.1802Z" stroke="white" stroke-width="2" stroke-linecap="round" stroke-linejoin="round"/>
</svg>
